<?xml version="1.0" encoding="UTF-8"?>
<svg xmlns="http://www.w3.org/2000/svg" xmlns:xlink="http://www.w3.org/1999/xlink" viewBox="0 0 92 92" width="120px" height="120px">
  <defs>
    <path id="a" d="M.351 46.343c-.01 25.2 20.418 45.638 45.632 45.65 25.212.011 45.662-20.408 45.673-45.608.01-25.2-20.418-45.639-45.63-45.651h-.022C20.8.733.364 21.148.351 46.344m29.264.012c.003-9.047 7.345-16.379 16.396-16.374 9.053.004 16.387 7.342 16.383 16.388-.004 9.049-7.346 16.38-16.398 16.375-9.052-.003-16.387-7.342-16.381-16.39"/>
    <path id="c" d="M.351 46.343c-.01 25.2 20.418 45.638 45.632 45.65 25.212.011 45.662-20.408 45.673-45.608.01-25.2-20.418-45.639-45.63-45.651h-.022C20.8.733.364 21.148.351 46.344m29.264.012c.003-9.047 7.345-16.379 16.396-16.374 9.053.004 16.387 7.342 16.383 16.388-.004 9.049-7.346 16.38-16.398 16.375-9.052-.003-16.387-7.342-16.381-16.39"/>
    <path id="e" d="M.351 46.343c-.01 25.2 20.418 45.638 45.632 45.65 25.212.011 45.662-20.408 45.673-45.608.01-25.2-20.418-45.639-45.63-45.651h-.022C20.8.733.364 21.148.351 46.344m29.264.012c.003-9.047 7.345-16.379 16.396-16.374 9.053.004 16.387 7.342 16.383 16.388-.004 9.049-7.346 16.38-16.398 16.375-9.052-.003-16.387-7.342-16.381-16.39"/>
    <path id="g" d="M.351 46.343c-.01 25.2 20.418 45.638 45.632 45.65 25.212.011 45.662-20.408 45.673-45.608.01-25.2-20.418-45.639-45.63-45.651h-.022C20.8.733.364 21.148.351 46.344m29.264.012c.003-9.047 7.345-16.379 16.396-16.374 9.053.004 16.387 7.342 16.383 16.388-.004 9.049-7.346 16.38-16.398 16.375-9.052-.003-16.387-7.342-16.381-16.39"/>
    <path id="i" d="M.351 46.343c-.01 25.2 20.418 45.638 45.632 45.65 25.212.011 45.662-20.408 45.673-45.608.01-25.2-20.418-45.639-45.63-45.651h-.022C20.8.733.364 21.148.351 46.344m29.264.012c.003-9.047 7.345-16.379 16.396-16.374 9.053.004 16.387 7.342 16.383 16.388-.004 9.049-7.346 16.38-16.398 16.375-9.052-.003-16.387-7.342-16.381-16.39"/>
    <path id="k" d="M.351 46.343c-.01 25.2 20.418 45.638 45.632 45.65 25.212.011 45.662-20.408 45.673-45.608.01-25.2-20.418-45.639-45.63-45.651h-.022C20.8.733.364 21.148.351 46.344m29.264.012c.003-9.047 7.345-16.379 16.396-16.374 9.053.004 16.387 7.342 16.383 16.388-.004 9.049-7.346 16.38-16.398 16.375-9.052-.003-16.387-7.342-16.381-16.39"/>
    <path id="m" d="M.351 46.343c-.01 25.2 20.418 45.638 45.632 45.65 25.212.011 45.662-20.408 45.673-45.608.01-25.2-20.418-45.639-45.63-45.651h-.022C20.8.733.364 21.148.351 46.344m29.264.012c.003-9.047 7.345-16.379 16.396-16.374 9.053.004 16.387 7.342 16.383 16.388-.004 9.049-7.346 16.38-16.398 16.375-9.052-.003-16.387-7.342-16.381-16.39"/>
    <path id="o" d="M.351 46.343c-.01 25.2 20.418 45.638 45.632 45.65 25.212.011 45.662-20.408 45.673-45.608.01-25.2-20.418-45.639-45.63-45.651h-.022C20.8.733.364 21.148.351 46.344m29.264.012c.003-9.047 7.345-16.379 16.396-16.374 9.053.004 16.387 7.342 16.383 16.388-.004 9.049-7.346 16.38-16.398 16.375-9.052-.003-16.387-7.342-16.381-16.39"/>
    <path id="q" d="M.351 46.343c-.01 25.2 20.418 45.638 45.632 45.65 25.212.011 45.662-20.408 45.673-45.608.01-25.2-20.418-45.639-45.63-45.651h-.022C20.8.733.364 21.148.351 46.344m29.264.012c.003-9.047 7.345-16.379 16.396-16.374 9.053.004 16.387 7.342 16.383 16.388-.004 9.049-7.346 16.38-16.398 16.375-9.052-.003-16.387-7.342-16.381-16.39"/>
    <path id="s" d="M.351 46.343c-.01 25.2 20.418 45.638 45.632 45.65 25.212.011 45.662-20.408 45.673-45.608.01-25.2-20.418-45.639-45.63-45.651h-.022C20.8.733.364 21.148.351 46.344m29.264.012c.003-9.047 7.345-16.379 16.396-16.374 9.053.004 16.387 7.342 16.383 16.388-.004 9.049-7.346 16.38-16.398 16.375-9.052-.003-16.387-7.342-16.381-16.39"/>
    <path id="u" d="M.351 46.343c-.01 25.2 20.418 45.638 45.632 45.65 25.212.011 45.662-20.408 45.673-45.608.01-25.2-20.418-45.639-45.63-45.651h-.022C20.8.733.364 21.148.351 46.344m29.264.012c.003-9.047 7.345-16.379 16.396-16.374 9.053.004 16.387 7.342 16.383 16.388-.004 9.049-7.346 16.38-16.398 16.375-9.052-.003-16.387-7.342-16.381-16.39"/>
    <path id="w" d="M.351 46.343c-.01 25.2 20.418 45.638 45.632 45.65 25.212.011 45.662-20.408 45.673-45.608.01-25.2-20.418-45.639-45.63-45.651h-.022C20.8.733.364 21.148.351 46.344m29.264.012c.003-9.047 7.345-16.379 16.396-16.374 9.053.004 16.387 7.342 16.383 16.388-.004 9.049-7.346 16.38-16.398 16.375-9.052-.003-16.387-7.342-16.381-16.39"/>
    <path id="y" d="M.351 46.343c-.01 25.2 20.418 45.638 45.632 45.65 25.212.011 45.662-20.408 45.673-45.608.01-25.2-20.418-45.639-45.63-45.651h-.022C20.8.733.364 21.148.351 46.344m29.264.012c.003-9.047 7.345-16.379 16.396-16.374 9.053.004 16.387 7.342 16.383 16.388-.004 9.049-7.346 16.38-16.398 16.375-9.052-.003-16.387-7.342-16.381-16.39"/>
    <path id="A" d="M.351 46.343c-.01 25.2 20.418 45.638 45.632 45.65 25.212.011 45.662-20.408 45.673-45.608.01-25.2-20.418-45.639-45.63-45.651h-.022C20.8.733.364 21.148.351 46.344m29.264.012c.003-9.047 7.345-16.379 16.396-16.374 9.053.004 16.387 7.342 16.383 16.388-.004 9.049-7.346 16.38-16.398 16.375-9.052-.003-16.387-7.342-16.381-16.39"/>
    <path id="C" d="M.351 46.343c-.01 25.2 20.418 45.638 45.632 45.65 25.212.011 45.662-20.408 45.673-45.608.01-25.2-20.418-45.639-45.63-45.651h-.022C20.8.733.364 21.148.351 46.344m29.264.012c.003-9.047 7.345-16.379 16.396-16.374 9.053.004 16.387 7.342 16.383 16.388-.004 9.049-7.346 16.38-16.398 16.375-9.052-.003-16.387-7.342-16.381-16.39"/>
    <path id="E" d="M.351 46.343c-.01 25.2 20.418 45.638 45.632 45.65 25.212.011 45.662-20.408 45.673-45.608.01-25.2-20.418-45.639-45.63-45.651h-.022C20.8.733.364 21.148.351 46.344m29.264.012c.003-9.047 7.345-16.379 16.396-16.374 9.053.004 16.387 7.342 16.383 16.388-.004 9.049-7.346 16.38-16.398 16.375-9.052-.003-16.387-7.342-16.381-16.39"/>
    <path id="G" d="M.351 46.343c-.01 25.2 20.418 45.638 45.632 45.65 25.212.011 45.662-20.408 45.673-45.608.01-25.2-20.418-45.639-45.63-45.651h-.022C20.8.733.364 21.148.351 46.344m29.264.012c.003-9.047 7.345-16.379 16.396-16.374 9.053.004 16.387 7.342 16.383 16.388-.004 9.049-7.346 16.38-16.398 16.375-9.052-.003-16.387-7.342-16.381-16.39"/>
    <path id="I" d="M.351 46.343c-.01 25.2 20.418 45.638 45.632 45.65 25.212.011 45.662-20.408 45.673-45.608.01-25.2-20.418-45.639-45.63-45.651h-.022C20.8.733.364 21.148.351 46.344m29.264.012c.003-9.047 7.345-16.379 16.396-16.374 9.053.004 16.387 7.342 16.383 16.388-.004 9.049-7.346 16.38-16.398 16.375-9.052-.003-16.387-7.342-16.381-16.39"/>
    <path id="K" d="M.351 46.343c-.01 25.2 20.418 45.638 45.632 45.65 25.212.011 45.662-20.408 45.673-45.608.01-25.2-20.418-45.639-45.63-45.651h-.022C20.8.733.364 21.148.351 46.344m29.264.012c.003-9.047 7.345-16.379 16.396-16.374 9.053.004 16.387 7.342 16.383 16.388-.004 9.049-7.346 16.38-16.398 16.375-9.052-.003-16.387-7.342-16.381-16.39"/>
    <path id="M" d="M.351 46.343c-.01 25.2 20.418 45.638 45.632 45.65 25.212.011 45.662-20.408 45.673-45.608.01-25.2-20.418-45.639-45.63-45.651h-.022C20.8.733.364 21.148.351 46.344m29.264.012c.003-9.047 7.345-16.379 16.396-16.374 9.053.004 16.387 7.342 16.383 16.388-.004 9.049-7.346 16.38-16.398 16.375-9.052-.003-16.387-7.342-16.381-16.39"/>
    <path id="O" d="M.351 46.343c-.01 25.2 20.418 45.638 45.632 45.65 25.212.011 45.662-20.408 45.673-45.608.01-25.2-20.418-45.639-45.63-45.651h-.022C20.8.733.364 21.148.351 46.344m29.264.012c.003-9.047 7.345-16.379 16.396-16.374 9.053.004 16.387 7.342 16.383 16.388-.004 9.049-7.346 16.38-16.398 16.375-9.052-.003-16.387-7.342-16.381-16.39"/>
    <path id="Q" d="M.351 46.343c-.01 25.2 20.418 45.638 45.632 45.65 25.212.011 45.662-20.408 45.673-45.608.01-25.2-20.418-45.639-45.63-45.651h-.022C20.8.733.364 21.148.351 46.344m29.264.012c.003-9.047 7.345-16.379 16.396-16.374 9.053.004 16.387 7.342 16.383 16.388-.004 9.049-7.346 16.38-16.398 16.375-9.052-.003-16.387-7.342-16.381-16.39"/>
    <path id="S" d="M.351 46.343c-.01 25.2 20.418 45.638 45.632 45.65 25.212.011 45.662-20.408 45.673-45.608.01-25.2-20.418-45.639-45.63-45.651h-.022C20.8.733.364 21.148.351 46.344m29.264.012c.003-9.047 7.345-16.379 16.396-16.374 9.053.004 16.387 7.342 16.383 16.388-.004 9.049-7.346 16.38-16.398 16.375-9.052-.003-16.387-7.342-16.381-16.39"/>
  </defs>
  <g fill="none" fill-rule="evenodd" opacity=".4">
    <path fill="#00A7E1" d="M46.492 62C37.38 61.996 29.996 54.605 30 45.492 30.004 36.38 37.395 28.996 46.508 29c9.112.004 16.496 7.396 16.492 16.508C62.996 54.62 55.604 62.004 46.492 62m-.47-62C20.617-.012.012 20.573 0 45.978-.012 71.383 20.573 91.988 45.979 92c25.405.012 46.01-20.574 46.021-45.979C92.012 20.616 71.427.011 46.022 0"/>
    <g>
      <mask id="b" fill="#fff">
        <use xlink:href="#a"/>
      </mask>
      <path fill="#FFF" d="M73.155 59.83l4.192-10.87a1.791 1.791 0 012.308-1.022l.304.118a1.787 1.787 0 011.022 2.305L76.79 61.23a1.789 1.789 0 01-2.306 1.021l-.304-.117a1.788 1.788 0 01-1.024-2.305" mask="url(#b)"/>
    </g>
    <g>
      <mask id="d" fill="#fff">
        <use xlink:href="#c"/>
      </mask>
      <path fill="#FFF" d="M37.619 59.41l4.192-10.87a1.791 1.791 0 012.307-1.023l.305.118a1.787 1.787 0 011.022 2.305l-4.192 10.87a1.789 1.789 0 01-2.306 1.022l-.305-.117a1.788 1.788 0 01-1.023-2.306" mask="url(#d)"/>
    </g>
    <g>
      <mask id="f" fill="#fff">
        <use xlink:href="#e"/>
      </mask>
      <path fill="#FFF" d="M56.454 68.206l-5.823-10.092a1.787 1.787 0 01.654-2.435l.283-.163a1.79 1.79 0 012.437.653l5.823 10.092c.49.85.195 1.946-.655 2.436l-.282.163a1.79 1.79 0 01-2.437-.654" mask="url(#f)"/>
    </g>
    <g>
      <mask id="h" fill="#fff">
        <use xlink:href="#g"/>
      </mask>
      <path fill="#DC2597" d="M76.441 34.546l-6.95-9.352a1.787 1.787 0 01.368-2.494l.262-.195a1.79 1.79 0 012.496.368l6.95 9.353c.585.786.42 1.909-.368 2.494l-.262.194a1.79 1.79 0 01-2.496-.368" mask="url(#h)"/>
    </g>
    <g>
      <mask id="j" fill="#fff">
        <use xlink:href="#i"/>
      </mask>
      <path fill="#DC2597" d="M25.925 55.953l1.635-11.534a1.789 1.789 0 012.017-1.516l.324.045a1.79 1.79 0 011.516 2.016l-1.636 11.535a1.79 1.79 0 01-2.017 1.515l-.323-.046a1.789 1.789 0 01-1.516-2.015" mask="url(#j)"/>
    </g>
    <g>
      <mask id="l" fill="#fff">
        <use xlink:href="#k"/>
      </mask>
      <path fill="#DC2597" d="M61.61 46.366l-4.707-10.657a1.788 1.788 0 01.912-2.352l.299-.131a1.79 1.79 0 012.352.911l4.708 10.656a1.788 1.788 0 01-.912 2.352l-.299.132a1.79 1.79 0 01-2.352-.911" mask="url(#l)"/>
    </g>
    <g>
      <mask id="n" fill="#fff">
        <use xlink:href="#m"/>
      </mask>
      <path fill="#FFF" d="M16.72 37.659l8.761-7.684A1.79 1.79 0 0128 30.14l.215.245a1.79 1.79 0 01-.164 2.517l-8.761 7.683a1.79 1.79 0 01-2.518-.164l-.215-.245a1.787 1.787 0 01.164-2.516" mask="url(#n)"/>
    </g>
    <g>
      <mask id="p" fill="#fff">
        <use xlink:href="#o"/>
      </mask>
      <path fill="#004A97" d="M3.194 29.881l11.564-1.458a1.79 1.79 0 011.994 1.545l.04.324a1.789 1.789 0 01-1.547 1.992l-11.564 1.46a1.79 1.79 0 01-1.992-1.547l-.041-.323a1.788 1.788 0 011.546-1.993" mask="url(#p)"/>
    </g>
    <g>
      <mask id="r" fill="#fff">
        <use xlink:href="#q"/>
      </mask>
      <path fill="#FD0" d="M44.944 15.334l11.052 3.7a1.787 1.787 0 011.125 2.257l-.104.309a1.79 1.79 0 01-2.258 1.124l-11.052-3.7a1.788 1.788 0 01-1.124-2.257l.103-.31a1.79 1.79 0 012.258-1.123" mask="url(#r)"/>
    </g>
    <g>
      <mask id="t" fill="#fff">
        <use xlink:href="#s"/>
      </mask>
      <path fill="#004A97" d="M24.409 85.087l11.052 3.7a1.787 1.787 0 011.124 2.257l-.104.31a1.79 1.79 0 01-2.258 1.124l-11.051-3.7a1.788 1.788 0 01-1.125-2.257l.103-.31a1.79 1.79 0 012.259-1.124" mask="url(#t)"/>
    </g>
    <g>
      <mask id="v" fill="#fff">
        <use xlink:href="#u"/>
      </mask>
      <path fill="#FFF" d="M73.777 14.657l.888-11.615a1.79 1.79 0 011.916-1.643l.325.025a1.788 1.788 0 011.642 1.914l-.889 11.616a1.788 1.788 0 01-1.914 1.642l-.326-.024a1.788 1.788 0 01-1.642-1.915" mask="url(#v)"/>
    </g>
    <g>
      <mask id="x" fill="#fff">
        <use xlink:href="#w"/>
      </mask>
      <path fill="#FD0" d="M40.158 37.533l10.23-5.58a1.79 1.79 0 012.422.711l.156.287c.47.86.15 1.948-.711 2.419l-10.232 5.58a1.79 1.79 0 01-2.42-.712l-.157-.286a1.788 1.788 0 01.712-2.42" mask="url(#x)"/>
    </g>
    <g>
      <mask id="z" fill="#fff">
        <use xlink:href="#y"/>
      </mask>
      <path fill="#FD0" d="M40.139 78.59l10.231-5.58a1.79 1.79 0 012.42.712l.156.286c.47.861.151 1.949-.71 2.42l-10.232 5.58a1.79 1.79 0 01-2.42-.712l-.157-.287c-.47-.86-.15-1.95.712-2.419" mask="url(#z)"/>
    </g>
    <g>
      <mask id="B" fill="#fff">
        <use xlink:href="#A"/>
      </mask>
      <path fill="#004A97" d="M18.709 13.537l8.331 8.147c.7.686.713 1.82.027 2.522l-.228.233a1.79 1.79 0 01-2.522.028l-8.332-8.149a1.787 1.787 0 01-.027-2.521l.228-.233a1.79 1.79 0 012.523-.027" mask="url(#B)"/>
    </g>
    <g>
      <mask id="D" fill="#fff">
        <use xlink:href="#C"/>
      </mask>
      <path fill="#004A97" d="M70.478 78.07l8.246-8.234a1.79 1.79 0 012.522.002l.231.23a1.789 1.789 0 010 2.523l-8.246 8.233a1.79 1.79 0 01-2.524-.001l-.23-.231a1.787 1.787 0 01.001-2.522" mask="url(#D)"/>
    </g>
    <g>
      <mask id="F" fill="#fff">
        <use xlink:href="#E"/>
      </mask>
      <path fill="#FD0" d="M10.637 79.797L9.281 68.226a1.787 1.787 0 011.564-1.978l.325-.039a1.789 1.789 0 011.979 1.564l1.357 11.571a1.789 1.789 0 01-1.565 1.978l-.325.038a1.789 1.789 0 01-1.979-1.563" mask="url(#F)"/>
    </g>
    <g>
      <mask id="H" fill="#fff">
        <use xlink:href="#G"/>
      </mask>
      <path fill="#FFF" d="M25.577 13.438a2.494 2.494 0 114.988.004 2.494 2.494 0 01-4.988-.004" mask="url(#H)"/>
    </g>
    <g>
      <mask id="J" fill="#fff">
        <use xlink:href="#I"/>
      </mask>
      <path fill="#004A97" d="M58.595 85.29A2.493 2.493 0 0161.09 82.8a2.493 2.493 0 11-.002 4.986 2.493 2.493 0 01-2.493-2.494" mask="url(#J)"/>
    </g>
    <g>
      <mask id="L" fill="#fff">
        <use xlink:href="#K"/>
      </mask>
      <path fill="#FFF" d="M-4.184 22.485a2.493 2.493 0 012.496-2.492 2.493 2.493 0 11-.002 4.986 2.493 2.493 0 01-2.494-2.494" mask="url(#L)"/>
    </g>
    <g>
      <mask id="N" fill="#fff">
        <use xlink:href="#M"/>
      </mask>
      <path fill="#FFF" d="M83.75 59.997a2.494 2.494 0 114.988.004 2.494 2.494 0 01-4.989-.004" mask="url(#N)"/>
    </g>
    <g>
      <mask id="P" fill="#fff">
        <use xlink:href="#O"/>
      </mask>
      <path fill="#FFF" d="M25.548 73.713a2.494 2.494 0 114.989.004 2.494 2.494 0 01-4.989-.004" mask="url(#P)"/>
    </g>
    <g>
      <mask id="R" fill="#fff">
        <use xlink:href="#Q"/>
      </mask>
      <path fill="#FFF" d="M2.642 50.797a2.494 2.494 0 114.988.004 2.494 2.494 0 01-4.988-.004" mask="url(#R)"/>
    </g>
    <g>
      <mask id="T" fill="#fff">
        <use xlink:href="#S"/>
      </mask>
      <path fill="#FFF" d="M65.551 3.465a2.494 2.494 0 114.988.004 2.494 2.494 0 01-4.988-.004" mask="url(#T)"/>
    </g>
  </g>
</svg>
