<?xml version="1.0" encoding="UTF-8"?>
<svg width="187px" height="191px" viewBox="0 0 187 191" version="1.1" xmlns="http://www.w3.org/2000/svg" xmlns:xlink="http://www.w3.org/1999/xlink">
  <title>Group 5</title>
  <defs>
    <path d="M0.0232044603,94.8398312 C-0.000350649351,147.127942 42.3669221,189.537383 94.6562727,189.560958 L94.6562727,189.560958 C146.944383,189.584513 189.352584,147.216 189.3774,94.9278896 L189.3774,94.9278896 C189.402195,42.6397792 147.033682,0.230337662 94.7443312,0.206772727 L94.7443312,0.206772727 C94.7319286,0.206772727 94.7120844,0.206772727 94.6984416,0.206772727 L94.6984416,0.206772727 C42.4276948,0.203051948 0.0480194805,42.5641234 0.0232044603,94.8398312 M60.7091206,94.8683571 C60.7178052,76.0957857 75.9432338,60.884 94.7158052,60.8914388 L94.7158052,60.8914388 C113.489617,60.9013636 128.700162,76.1267922 128.691484,94.8993636 L128.691484,94.8993636 C128.682799,113.671935 113.45737,128.883721 94.6835584,128.875043 L94.6835584,128.875043 C75.9122273,128.866357 60.7016818,113.640929 60.7091206,94.8683571" id="path-1"></path>
    <path d="M0.0232044603,94.8398312 C-0.000350649351,147.127942 42.3669221,189.537383 94.6562727,189.560958 L94.6562727,189.560958 C146.944383,189.584513 189.352584,147.216 189.3774,94.9278896 L189.3774,94.9278896 C189.402195,42.6397792 147.033682,0.230337662 94.7443312,0.206772727 L94.7443312,0.206772727 C94.7319286,0.206772727 94.7120844,0.206772727 94.6984416,0.206772727 L94.6984416,0.206772727 C42.4276948,0.203051948 0.0480194805,42.5641234 0.0232044603,94.8398312 M60.7091206,94.8683571 C60.7178052,76.0957857 75.9432338,60.884 94.7158052,60.8914388 L94.7158052,60.8914388 C113.489617,60.9013636 128.700162,76.1267922 128.691484,94.8993636 L128.691484,94.8993636 C128.682799,113.671935 113.45737,128.883721 94.6835584,128.875043 L94.6835584,128.875043 C75.9122273,128.866357 60.7016818,113.640929 60.7091206,94.8683571" id="path-3"></path>
    <path d="M0.0232044603,94.8398312 C-0.000350649351,147.127942 42.3669221,189.537383 94.6562727,189.560958 L94.6562727,189.560958 C146.944383,189.584513 189.352584,147.216 189.3774,94.9278896 L189.3774,94.9278896 C189.402195,42.6397792 147.033682,0.230337662 94.7443312,0.206772727 L94.7443312,0.206772727 C94.7319286,0.206772727 94.7120844,0.206772727 94.6984416,0.206772727 L94.6984416,0.206772727 C42.4276948,0.203051948 0.0480194805,42.5641234 0.0232044603,94.8398312 M60.7091206,94.8683571 C60.7178052,76.0957857 75.9432338,60.884 94.7158052,60.8914388 L94.7158052,60.8914388 C113.489617,60.9013636 128.700162,76.1267922 128.691484,94.8993636 L128.691484,94.8993636 C128.682799,113.671935 113.45737,128.883721 94.6835584,128.875043 L94.6835584,128.875043 C75.9122273,128.866357 60.7016818,113.640929 60.7091206,94.8683571" id="path-5"></path>
    <path d="M0.0232044603,94.8398312 C-0.000350649351,147.127942 42.3669221,189.537383 94.6562727,189.560958 L94.6562727,189.560958 C146.944383,189.584513 189.352584,147.216 189.3774,94.9278896 L189.3774,94.9278896 C189.402195,42.6397792 147.033682,0.230337662 94.7443312,0.206772727 L94.7443312,0.206772727 C94.7319286,0.206772727 94.7120844,0.206772727 94.6984416,0.206772727 L94.6984416,0.206772727 C42.4276948,0.203051948 0.0480194805,42.5641234 0.0232044603,94.8398312 M60.7091206,94.8683571 C60.7178052,76.0957857 75.9432338,60.884 94.7158052,60.8914388 L94.7158052,60.8914388 C113.489617,60.9013636 128.700162,76.1267922 128.691484,94.8993636 L128.691484,94.8993636 C128.682799,113.671935 113.45737,128.883721 94.6835584,128.875043 L94.6835584,128.875043 C75.9122273,128.866357 60.7016818,113.640929 60.7091206,94.8683571" id="path-7"></path>
    <path d="M0.0232044603,94.8398312 C-0.000350649351,147.127942 42.3669221,189.537383 94.6562727,189.560958 L94.6562727,189.560958 C146.944383,189.584513 189.352584,147.216 189.3774,94.9278896 L189.3774,94.9278896 C189.402195,42.6397792 147.033682,0.230337662 94.7443312,0.206772727 L94.7443312,0.206772727 C94.7319286,0.206772727 94.7120844,0.206772727 94.6984416,0.206772727 L94.6984416,0.206772727 C42.4276948,0.203051948 0.0480194805,42.5641234 0.0232044603,94.8398312 M60.7091206,94.8683571 C60.7178052,76.0957857 75.9432338,60.884 94.7158052,60.8914388 L94.7158052,60.8914388 C113.489617,60.9013636 128.700162,76.1267922 128.691484,94.8993636 L128.691484,94.8993636 C128.682799,113.671935 113.45737,128.883721 94.6835584,128.875043 L94.6835584,128.875043 C75.9122273,128.866357 60.7016818,113.640929 60.7091206,94.8683571" id="path-9"></path>
    <path d="M0.0232044603,94.8398312 C-0.000350649351,147.127942 42.3669221,189.537383 94.6562727,189.560958 L94.6562727,189.560958 C146.944383,189.584513 189.352584,147.216 189.3774,94.9278896 L189.3774,94.9278896 C189.402195,42.6397792 147.033682,0.230337662 94.7443312,0.206772727 L94.7443312,0.206772727 C94.7319286,0.206772727 94.7120844,0.206772727 94.6984416,0.206772727 L94.6984416,0.206772727 C42.4276948,0.203051948 0.0480194805,42.5641234 0.0232044603,94.8398312 M60.7091206,94.8683571 C60.7178052,76.0957857 75.9432338,60.884 94.7158052,60.8914388 L94.7158052,60.8914388 C113.489617,60.9013636 128.700162,76.1267922 128.691484,94.8993636 L128.691484,94.8993636 C128.682799,113.671935 113.45737,128.883721 94.6835584,128.875043 L94.6835584,128.875043 C75.9122273,128.866357 60.7016818,113.640929 60.7091206,94.8683571" id="path-11"></path>
    <path d="M0.0232044603,94.8398312 C-0.000350649351,147.127942 42.3669221,189.537383 94.6562727,189.560958 L94.6562727,189.560958 C146.944383,189.584513 189.352584,147.216 189.3774,94.9278896 L189.3774,94.9278896 C189.402195,42.6397792 147.033682,0.230337662 94.7443312,0.206772727 L94.7443312,0.206772727 C94.7319286,0.206772727 94.7120844,0.206772727 94.6984416,0.206772727 L94.6984416,0.206772727 C42.4276948,0.203051948 0.0480194805,42.5641234 0.0232044603,94.8398312 M60.7091206,94.8683571 C60.7178052,76.0957857 75.9432338,60.884 94.7158052,60.8914388 L94.7158052,60.8914388 C113.489617,60.9013636 128.700162,76.1267922 128.691484,94.8993636 L128.691484,94.8993636 C128.682799,113.671935 113.45737,128.883721 94.6835584,128.875043 L94.6835584,128.875043 C75.9122273,128.866357 60.7016818,113.640929 60.7091206,94.8683571" id="path-13"></path>
    <path d="M0.0232044603,94.8398312 C-0.000350649351,147.127942 42.3669221,189.537383 94.6562727,189.560958 L94.6562727,189.560958 C146.944383,189.584513 189.352584,147.216 189.3774,94.9278896 L189.3774,94.9278896 C189.402195,42.6397792 147.033682,0.230337662 94.7443312,0.206772727 L94.7443312,0.206772727 C94.7319286,0.206772727 94.7120844,0.206772727 94.6984416,0.206772727 L94.6984416,0.206772727 C42.4276948,0.203051948 0.0480194805,42.5641234 0.0232044603,94.8398312 M60.7091206,94.8683571 C60.7178052,76.0957857 75.9432338,60.884 94.7158052,60.8914388 L94.7158052,60.8914388 C113.489617,60.9013636 128.700162,76.1267922 128.691484,94.8993636 L128.691484,94.8993636 C128.682799,113.671935 113.45737,128.883721 94.6835584,128.875043 L94.6835584,128.875043 C75.9122273,128.866357 60.7016818,113.640929 60.7091206,94.8683571" id="path-15"></path>
    <path d="M0.0232044603,94.8398312 C-0.000350649351,147.127942 42.3669221,189.537383 94.6562727,189.560958 L94.6562727,189.560958 C146.944383,189.584513 189.352584,147.216 189.3774,94.9278896 L189.3774,94.9278896 C189.402195,42.6397792 147.033682,0.230337662 94.7443312,0.206772727 L94.7443312,0.206772727 C94.7319286,0.206772727 94.7120844,0.206772727 94.6984416,0.206772727 L94.6984416,0.206772727 C42.4276948,0.203051948 0.0480194805,42.5641234 0.0232044603,94.8398312 M60.7091206,94.8683571 C60.7178052,76.0957857 75.9432338,60.884 94.7158052,60.8914388 L94.7158052,60.8914388 C113.489617,60.9013636 128.700162,76.1267922 128.691484,94.8993636 L128.691484,94.8993636 C128.682799,113.671935 113.45737,128.883721 94.6835584,128.875043 L94.6835584,128.875043 C75.9122273,128.866357 60.7016818,113.640929 60.7091206,94.8683571" id="path-17"></path>
    <path d="M0.0232044603,94.8398312 C-0.000350649351,147.127942 42.3669221,189.537383 94.6562727,189.560958 L94.6562727,189.560958 C146.944383,189.584513 189.352584,147.216 189.3774,94.9278896 L189.3774,94.9278896 C189.402195,42.6397792 147.033682,0.230337662 94.7443312,0.206772727 L94.7443312,0.206772727 C94.7319286,0.206772727 94.7120844,0.206772727 94.6984416,0.206772727 L94.6984416,0.206772727 C42.4276948,0.203051948 0.0480194805,42.5641234 0.0232044603,94.8398312 M60.7091206,94.8683571 C60.7178052,76.0957857 75.9432338,60.884 94.7158052,60.8914388 L94.7158052,60.8914388 C113.489617,60.9013636 128.700162,76.1267922 128.691484,94.8993636 L128.691484,94.8993636 C128.682799,113.671935 113.45737,128.883721 94.6835584,128.875043 L94.6835584,128.875043 C75.9122273,128.866357 60.7016818,113.640929 60.7091206,94.8683571" id="path-19"></path>
    <path d="M0.0232044603,94.8398312 C-0.000350649351,147.127942 42.3669221,189.537383 94.6562727,189.560958 L94.6562727,189.560958 C146.944383,189.584513 189.352584,147.216 189.3774,94.9278896 L189.3774,94.9278896 C189.402195,42.6397792 147.033682,0.230337662 94.7443312,0.206772727 L94.7443312,0.206772727 C94.7319286,0.206772727 94.7120844,0.206772727 94.6984416,0.206772727 L94.6984416,0.206772727 C42.4276948,0.203051948 0.0480194805,42.5641234 0.0232044603,94.8398312 M60.7091206,94.8683571 C60.7178052,76.0957857 75.9432338,60.884 94.7158052,60.8914388 L94.7158052,60.8914388 C113.489617,60.9013636 128.700162,76.1267922 128.691484,94.8993636 L128.691484,94.8993636 C128.682799,113.671935 113.45737,128.883721 94.6835584,128.875043 L94.6835584,128.875043 C75.9122273,128.866357 60.7016818,113.640929 60.7091206,94.8683571" id="path-21"></path>
    <path d="M0.0232044603,94.8398312 C-0.000350649351,147.127942 42.3669221,189.537383 94.6562727,189.560958 L94.6562727,189.560958 C146.944383,189.584513 189.352584,147.216 189.3774,94.9278896 L189.3774,94.9278896 C189.402195,42.6397792 147.033682,0.230337662 94.7443312,0.206772727 L94.7443312,0.206772727 C94.7319286,0.206772727 94.7120844,0.206772727 94.6984416,0.206772727 L94.6984416,0.206772727 C42.4276948,0.203051948 0.0480194805,42.5641234 0.0232044603,94.8398312 M60.7091206,94.8683571 C60.7178052,76.0957857 75.9432338,60.884 94.7158052,60.8914388 L94.7158052,60.8914388 C113.489617,60.9013636 128.700162,76.1267922 128.691484,94.8993636 L128.691484,94.8993636 C128.682799,113.671935 113.45737,128.883721 94.6835584,128.875043 L94.6835584,128.875043 C75.9122273,128.866357 60.7016818,113.640929 60.7091206,94.8683571" id="path-23"></path>
    <path d="M0.0232044603,94.8398312 C-0.000350649351,147.127942 42.3669221,189.537383 94.6562727,189.560958 L94.6562727,189.560958 C146.944383,189.584513 189.352584,147.216 189.3774,94.9278896 L189.3774,94.9278896 C189.402195,42.6397792 147.033682,0.230337662 94.7443312,0.206772727 L94.7443312,0.206772727 C94.7319286,0.206772727 94.7120844,0.206772727 94.6984416,0.206772727 L94.6984416,0.206772727 C42.4276948,0.203051948 0.0480194805,42.5641234 0.0232044603,94.8398312 M60.7091206,94.8683571 C60.7178052,76.0957857 75.9432338,60.884 94.7158052,60.8914388 L94.7158052,60.8914388 C113.489617,60.9013636 128.700162,76.1267922 128.691484,94.8993636 L128.691484,94.8993636 C128.682799,113.671935 113.45737,128.883721 94.6835584,128.875043 L94.6835584,128.875043 C75.9122273,128.866357 60.7016818,113.640929 60.7091206,94.8683571" id="path-25"></path>
  </defs>
  <g id="UI" stroke="none" stroke-width="1" fill="none" fill-rule="evenodd" opacity="0.4">
    <g id="Kidz" transform="translate(-6.000000, -2450.000000)">
      <g id="background-elements" transform="translate(6.000000, 2132.000000)">
        <g id="Group-5" transform="translate(0.000000, 318.000000)">
          <path d="M93.3495112,128.016779 C74.75865,128.008144 59.6953359,112.871958 59.7027027,94.2094198 C59.7125314,75.546882 74.7905846,60.4242587 93.3814458,60.4328859 C111.972307,60.4415205 127.035621,75.5777067 127.027027,94.2402446 C127.018426,112.904015 111.940372,128.025406 93.3495112,128.016779 M93.4082833,0.5 C41.8448909,0.475121129 0.0244710815,42.9893787 0,95.4558206 C-0.0232286339,147.922262 41.7580529,190.476344 93.3214454,190.5 C144.886061,190.524879 186.706481,148.010621 186.72973,95.5441794 C186.75418,43.0777375 144.972899,0.523656228 93.4082833,0.5" id="Fill-3" fill="#DC2597"></path>
          <g id="Group-1525" transform="translate(0.000000, 0.500000)">
            <g id="Group-1488">
              <mask id="mask-2" fill="white">
                <use xlink:href="#path-1"></use>
              </mask>
              <g id="Clip-1487"></g>
              <path d="M156.695057,112.742608 C159.912291,115.178479 160.544823,119.761238 158.108953,122.978472 C155.673083,126.195706 151.090323,126.828238 147.87309,124.392368 C144.655856,121.956498 144.023323,117.373738 146.459194,114.156505 C148.895064,110.939271 153.477823,110.306738 156.695057,112.742608" id="Fill-1486" fill="#FFDD00" mask="url(#mask-2)"></path>
            </g>
            <g id="Group-1491">
              <mask id="mask-4" fill="white">
                <use xlink:href="#path-3"></use>
              </mask>
              <g id="Clip-1490"></g>
              <path d="M58.3787994,153.507466 C61.5960331,155.943336 62.2285656,160.526095 59.7926955,163.743329 C57.3568253,166.960563 52.7740656,167.593095 49.5568318,165.157225 C46.3395981,162.721355 45.7070656,158.138595 48.1429357,154.921362 C50.5788058,151.704128 55.1615656,151.071595 58.3787994,153.507466" id="Fill-1489" fill="#FFFFFF" mask="url(#mask-4)"></path>
            </g>
            <g id="Group-1494">
              <mask id="mask-6" fill="white">
                <use xlink:href="#path-5"></use>
              </mask>
              <g id="Clip-1493"></g>
              <path d="M155.559598,69.4713104 C155.56084,65.4355052 158.833885,62.1661805 162.86969,62.1686596 C166.904255,62.1699013 170.17482,65.4429468 170.172341,69.4775117 C170.171099,73.5133169 166.898054,76.7826416 162.862249,76.7814017 C158.827684,76.7789208 155.557119,73.5071156 155.559598,69.4713104" id="Fill-1492" fill="#FFFFFF" mask="url(#mask-6)"></path>
            </g>
            <g id="Group-1497">
              <mask id="mask-8" fill="white">
                <use xlink:href="#path-7"></use>
              </mask>
              <g id="Clip-1496"></g>
              <path d="M2.6700526,87.2367909 C6.51113701,86.0014922 10.6275591,88.1148948 11.8616175,91.9559792 C13.0969162,95.7983039 10.9847539,99.9134857 7.14242922,101.148784 C3.30134481,102.384083 -0.813837013,100.270681 -2.04913571,96.4283558 C-3.28443442,92.5872714 -1.17103182,88.4720896 2.6700526,87.2367909" id="Fill-1495" fill="#FFFFFF" mask="url(#mask-8)"></path>
            </g>
            <g id="Group-1500">
              <mask id="mask-10" fill="white">
                <use xlink:href="#path-9"></use>
              </mask>
              <g id="Clip-1499"></g>
              <path d="M129.066287,43.8878526 C128.514371,39.8904955 131.307436,36.201963 135.304794,35.6500474 C139.302151,35.0981318 142.989443,37.8911968 143.541358,41.8885539 C144.093274,45.885911 141.301449,49.5732032 137.304092,50.1263591 C133.306735,50.6782747 129.618203,47.8852097 129.066287,43.8878526" id="Fill-1498" fill="#FFDD00" mask="url(#mask-10)"></path>
            </g>
            <g id="Group-1503">
              <mask id="mask-12" fill="white">
                <use xlink:href="#path-11"></use>
              </mask>
              <g id="Clip-1502"></g>
              <path d="M47.8145149,125.064217 C47.2625994,121.06686 50.0556643,117.378327 54.0530214,116.826412 C58.0503786,116.274496 61.7376708,119.067561 62.2895864,123.064918 C62.8415019,127.062275 60.0496773,130.749568 56.0523201,131.302723 C52.054963,131.854639 48.3664305,129.061574 47.8145149,125.064217" id="Fill-1501" fill="#FFDD00" mask="url(#mask-12)"></path>
            </g>
            <g id="Group-1506">
              <mask id="mask-14" fill="white">
                <use xlink:href="#path-13"></use>
              </mask>
              <g id="Clip-1505"></g>
              <path d="M31.704161,108.938856 C31.1522455,104.941499 33.9453104,101.252966 37.9426675,100.701051 C41.9400247,100.149135 45.6273169,102.9422 46.1792325,106.939557 C46.7311481,110.936914 43.9393234,114.624206 39.9419662,115.177362 C35.9446091,115.729278 32.2560766,112.936213 31.704161,108.938856" id="Fill-1504" fill="#FFFFFF" mask="url(#mask-14)"></path>
            </g>
            <g id="Group-1509">
              <mask id="mask-16" fill="white">
                <use xlink:href="#path-15"></use>
              </mask>
              <g id="Clip-1508"></g>
              <path d="M52.8648526,87.7978844 C52.312937,83.8005273 55.1060019,80.1119948 59.1033591,79.5600792 C63.1007162,79.0081636 66.7880084,81.8012286 67.339924,85.7985857 C67.8930799,89.7959429 65.1000149,93.4832351 61.1026578,94.0363909 C57.1053006,94.5883065 53.4167682,91.7952416 52.8648526,87.7978844" id="Fill-1507" fill="#FFFFFF" mask="url(#mask-16)"></path>
            </g>
            <g id="Group-1512">
              <mask id="mask-18" fill="white">
                <use xlink:href="#path-17"></use>
              </mask>
              <g id="Clip-1511"></g>
              <path d="M29.6910955,64.6025468 C29.1391799,60.6051896 31.9322448,56.9166571 35.9296019,56.3647416 C39.9257188,55.812826 43.6142513,58.6058909 44.1661669,62.6032481 C44.7180825,66.6006052 41.9250175,70.2878974 37.9289006,70.8410532 C33.9315435,71.3929688 30.243011,68.5999039 29.6910955,64.6025468" id="Fill-1510" fill="#FFDD00" mask="url(#mask-18)"></path>
            </g>
            <g id="Group-1515">
              <mask id="mask-20" fill="white">
                <use xlink:href="#path-19"></use>
              </mask>
              <g id="Clip-1514"></g>
              <path d="M50.7246604,25.1576981 C50.1727448,21.1603409 52.9658097,17.4718084 56.9631669,16.9198929 C60.960524,16.3679773 64.6478162,19.1610422 65.1997318,23.1583994 C65.7516474,27.1557565 62.9598227,30.8430487 58.9624656,31.3962045 C54.9651084,31.9481201 51.276576,29.1550552 50.7246604,25.1576981" id="Fill-1513" fill="#FFDD00" mask="url(#mask-20)"></path>
            </g>
            <g id="Group-1518">
              <mask id="mask-22" fill="white">
                <use xlink:href="#path-21"></use>
              </mask>
              <g id="Clip-1517"></g>
              <path d="M98.2318175,171.151649 C101.449051,173.587519 102.081584,178.170279 99.6457136,181.387512 C97.2098435,184.604746 92.6270838,185.237279 89.40985,182.801408 C86.1926162,180.365538 85.5600838,175.782779 87.9959539,172.565545 C90.431824,169.348311 95.0145838,168.715779 98.2318175,171.151649" id="Fill-1516" fill="#FFDD00" mask="url(#mask-22)"></path>
            </g>
            <g id="Group-1521">
              <mask id="mask-24" fill="white">
                <use xlink:href="#path-23"></use>
              </mask>
              <g id="Clip-1520"></g>
              <path d="M113.171242,148.160334 C112.619327,144.162977 115.412392,140.474444 119.409749,139.922529 C123.407106,139.370613 127.094398,142.163678 127.646314,146.161035 C128.198229,150.158392 125.406405,153.845684 121.409047,154.39884 C117.41169,154.950756 113.723158,152.157691 113.171242,148.160334" id="Fill-1519" fill="#FFFFFF" mask="url(#mask-24)"></path>
            </g>
            <g id="Group-1524">
              <mask id="mask-26" fill="white">
                <use xlink:href="#path-25"></use>
              </mask>
              <g id="Clip-1523"></g>
              <path d="M86.3909338,7.9550474 C85.8390182,3.95769026 88.6320831,0.269157792 92.6294403,-0.282757792 C96.6267974,-0.834673377 100.31409,1.95839156 100.866005,5.9557487 C101.419161,9.95310584 98.6260961,13.6403981 94.628739,14.1935539 C90.6313818,14.7454695 86.9428494,11.9524045 86.3909338,7.9550474" id="Fill-1522" fill="#FFFFFF" mask="url(#mask-26)"></path>
            </g>
          </g>
        </g>
      </g>
    </g>
  </g>
</svg>
