<svg xmlns="http://www.w3.org/2000/svg" xmlns:xlink="http://www.w3.org/1999/xlink" viewBox="0 0 633 633">
  <defs>
    <rect id="a" width="211" height="211" x="0" y="0"/>
  </defs>
  <g fill="none" fill-rule="evenodd">
    <rect width="632" height="633" fill="#F5F5F5"/>
    <rect width="211" height="211" x="211" y="211" fill="#84BD00"/>
    <rect width="210" height="210" x=".5" y="422.5" fill="#D8D8D8" stroke="#979797"/>
    <g transform="translate(0 422)">
      <polygon fill="#004C97" points="0 211 211 211 211 0 0 0"/>
      <g transform="translate(21 21)">
        <path fill="#00A9E0" d="M31.688 84.5c0 29.167 23.645 52.813 52.812 52.813 29.167 0 52.813-23.646 52.813-52.813S113.666 31.687 84.5 31.687 31.687 55.334 31.687 84.5"/>
        <line x1="84.5" x2="84.5" y2="169" stroke="#FFF" stroke-width="4"/>
        <line x1="52.163" x2="116.837" y1="6.432" y2="162.568" stroke="#FFF" stroke-width="4"/>
        <line x1="24.749" x2="144.251" y1="24.749" y2="144.251" stroke="#FFF" stroke-width="4"/>
        <line x1="6.432" x2="162.568" y1="52.163" y2="116.837" stroke="#FFF" stroke-width="4"/>
        <line x2="169" y1="84.5" y2="84.5" stroke="#FFF" stroke-width="4"/>
        <line x1="6.432" x2="162.568" y1="116.837" y2="52.163" stroke="#FFF" stroke-width="4"/>
        <line x1="24.749" x2="144.251" y1="144.251" y2="24.749" stroke="#FFF" stroke-width="4"/>
        <line x1="52.163" x2="116.837" y1="162.568" y2="6.432" stroke="#FFF" stroke-width="4"/>
      </g>
    </g>
    <rect width="211" height="211" y="211" fill="#F2A900"/>
    <rect width="211" height="211" fill="#FEDD00"/>
    <circle cx="105.5" cy="105.5" r="42.5" fill="#FFF"/>
    <rect width="210" height="210" x="211.5" y="422.5" fill="#D8D8D8" stroke="#979797"/>
    <g transform="translate(211 422)">
      <polygon fill="#523178" points="0 211 211 211 211 0 0 0"/>
      <polygon fill="#00A9E0" points="0 211 106 211 106 0 0 0"/>
      <path fill="#00A9E0" d="M105 105.5V154l49-48.5S105.29 57 105 57v48.5z"/>
      <path fill="#F8F8F8" d="M105.999 105.5V154C105.709 154 57 105.5 57 105.5S106.289 57 105.999 57v48.5z"/>
    </g>
    <rect width="210" height="210" x="211.5" y=".5" fill="#00A9E0" stroke="#979797"/>
    <g transform="translate(211)">
      <mask id="b" fill="#fff">
        <use xlink:href="#a"/>
      </mask>
      <use fill="#004C97" xlink:href="#a"/>
      <g stroke="#E7EAEF" stroke-width="8" mask="url(#b)">
        <path d="M194.438 212.5c0 9.976 8.086 18.063 18.062 18.063s18.063-8.087 18.063-18.063c0-9.976-8.087-18.063-18.063-18.063-9.976 0-18.063 8.087-18.063 18.063z"/>
        <path d="M176.375 212.5c0 19.951 16.174 36.125 36.125 36.125s36.125-16.174 36.125-36.125-16.174-36.125-36.125-36.125-36.125 16.174-36.125 36.125z"/>
        <path d="M158.313 212.5c0 29.927 24.26 54.188 54.187 54.188 29.927 0 54.188-24.261 54.188-54.188 0-29.927-24.261-54.188-54.188-54.188-29.927 0-54.188 24.261-54.188 54.188z"/>
        <path d="M140.25 212.5c0 39.903 32.347 72.25 72.25 72.25s72.25-32.347 72.25-72.25-32.347-72.25-72.25-72.25-72.25 32.347-72.25 72.25z"/>
        <path d="M122.188 212.5c0 49.878 40.434 90.313 90.312 90.313s90.313-40.435 90.313-90.313-40.435-90.313-90.313-90.313-90.313 40.435-90.313 90.313z"/>
        <path d="M104.125 212.5c0 59.854 48.52 108.375 108.375 108.375 59.854 0 108.375-48.52 108.375-108.375 0-59.854-48.52-108.375-108.375-108.375-59.854 0-108.375 48.52-108.375 108.375z"/>
        <path d="M86.063 212.5c0 69.83 56.607 126.438 126.437 126.438S338.938 282.33 338.938 212.5c0-69.83-56.608-126.438-126.438-126.438-69.83 0-126.438 56.608-126.438 126.438z"/>
        <path d="M68 212.5C68 292.305 132.695 357 212.5 357S357 292.305 357 212.5 292.305 68 212.5 68 68 132.695 68 212.5z"/>
      </g>
    </g>
    <rect width="211" height="211" x="422" y="422" fill="#D62598"/>
    <g transform="translate(338 211)">
      <polygon fill="#509E2F" points="84 211 295 211 295 0 84 0"/>
      <polygon fill="#E7EAEF" points="84.5 20 0 104.5 84.5 189 169 104.5"/>
      <polygon fill="#00A9E0" points="84 42 21 105 84 168 147 105"/>
      <polygon fill="#E7EAEF" points="83.5 63 41 105.5 83.5 148 126 105.5"/>
      <polygon fill="#00A9E0" points="63 105 84 84 105 105 84 126"/>
    </g>
  </g>
</svg>
