<?xml version="1.0" encoding="utf-8"?>
<!-- Generator: Adobe Illustrator 24.3.0, SVG Export Plug-In . SVG Version: 6.00 Build 0)  -->
<svg version="1.1" id="Layer_1" xmlns="http://www.w3.org/2000/svg" xmlns:xlink="http://www.w3.org/1999/xlink" x="0px" y="0px"
	 viewBox="0 0 595 593" style="enable-background:new 0 0 595 593;" xml:space="preserve">
<style type="text/css">
	.st0{fill-rule:evenodd;clip-rule:evenodd;fill:#F5F5F5;}
	.st1{fill-rule:evenodd;clip-rule:evenodd;fill:#F6A800;}
	.st2{fill-rule:evenodd;clip-rule:evenodd;fill:#4C9D2E;}
	.st3{fill-rule:evenodd;clip-rule:evenodd;fill:#80BC00;}
	.st4{fill-rule:evenodd;clip-rule:evenodd;fill:#FFFFFF;}
	.st5{fill-rule:evenodd;clip-rule:evenodd;fill:#00A7E1;}
	.st6{fill-rule:evenodd;clip-rule:evenodd;fill:#84BD00;}
	.st7{fill-rule:evenodd;clip-rule:evenodd;fill:#533278;}
	.st8{fill-rule:evenodd;clip-rule:evenodd;fill:#FFDD00;}
	.st9{fill-rule:evenodd;clip-rule:evenodd;fill:#DC2597;}
	.st10{fill-rule:evenodd;clip-rule:evenodd;fill:#509E2F;}
	.st11{fill:none;}
	.st12{fill:none;stroke:#FFFFFF;stroke-width:2.359;}
</style>
<g>
	<polygon class="st0" points="595,443.4 297,444.4 297,-1.6 595,-1.6 	"/>
	<polygon class="st1" points="561,294.4 542,294.4 542,443.4 561,443.4 	"/>
	<polygon class="st1" points="529,294.4 510,294.4 510,443.4 529,443.4 	"/>
	<polygon class="st1" points="496,294.4 477,294.4 477,443.4 496,443.4 	"/>
	<polygon class="st1" points="464,294.4 445,294.4 445,443.4 464,443.4 	"/>
	<polygon class="st1" points="595,519.4 520.5,519.4 520.5,592.4 595,592.4 	"/>
	<polygon class="st2" points="520.5,519.4 445,519.4 445,592.4 520.5,592.4 	"/>
	<polygon class="st3" points="595,443.4 520.5,443.4 520.5,519.4 595,519.4 	"/>
	<polygon class="st4" points="520.5,443.4 445,443.4 445,519.4 520.5,519.4 	"/>
	<polygon class="st5" points="149,-1.6 0,-1.6 0,146.4 149,146.4 	"/>
	<polygon class="st6" points="149,295.9 0,295.9 0,444.4 149,444.4 	"/>
	<polygon class="st7" points="149,444.4 0,444.4 0,592.4 149,592.4 	"/>
	<polygon class="st3" points="298,443.4 149,444.4 149,592.4 298,592.4 	"/>
	<polygon class="st8" points="298,146.4 149,146.4 149,295.9 298,296.4 	"/>
	<polygon class="st2" points="149,146.4 0,146.4 0,295.9 149,295.9 	"/>
	<polygon class="st1" points="298,295.9 149,295.9 149,444.4 298,444.4 	"/>
	<polygon class="st7" points="298,-1.6 149,-1.6 149,146.4 298,146.4 	"/>
	<polygon class="st2" points="445,295.4 296,295.4 296,444.4 445,443.4 	"/>
	<polygon class="st1" points="445,443.4 296,443.4 296,592.4 445,592.4 	"/>
	<path class="st7" d="M0,146.4v12c5.4,35.7,36.5,63,74.1,63c41.4,0,74.9-34.1,74.9-75H0z"/>
	<path class="st4" d="M26,146.4v8.1c3.4,23.1,23.3,40.9,47.2,40.9c26.4,0,47.7-22.5,47.8-49H26z"/>
	<path class="st2" d="M298,140.6c-3.2-38.2-35.3-68.2-74.5-68.2c-39.2,0-71.3,30-74.5,68.2v5.8h149V140.6z"/>
	<path class="st9" d="M296,577.4v-45.2c-47.7-1.3-86.2-40.1-86.7-87.8H164C164.6,517,223.4,576,296,577.4"/>
	<path class="st4" d="M296.6,498.6c-0.4,0-0.7,0-1.1,0c-30.8,0-55.8-25-55.8-55.8s25-55.8,55.8-55.8c30.8,0,55.8,25,55.8,55.8
		c0,0.4,0,0.7,0,1.1H396c0-0.4,0-0.7,0-1.1c0-55.4-45.1-100.5-100.5-100.5c-55.4,0-100.5,45.1-100.5,100.5
		c0,55.4,45.1,100.5,100.5,100.5c0.4,0,0.7,0,1.1,0V498.6L296.6,498.6z"/>
	<path class="st5" d="M240,444.4c0-31.5,25.5-57,57-57c31.5,0,57,25.5,57,57s-25.5,57-57,57C265.5,501.4,240,475.8,240,444.4"/>
	<polygon class="st5" points="121,444.4 0,444.4 0,565.4 121,565.4 	"/>
	<polygon class="st8" points="149,425.4 205,369.4 149,313.4 93,369.4 	"/>
	<polygon class="st10" points="316,146.4 297,146.4 297,296.4 316,296.4 	"/>
	<polygon class="st10" points="348,146.4 329,146.4 329,296.4 348,296.4 	"/>
	<polygon class="st10" points="380,146.4 361,146.4 361,296.4 380,296.4 	"/>
	<polygon class="st10" points="412,146.4 393,146.4 393,296.4 412,296.4 	"/>
	<polygon class="st10" points="445,146 426,146 426,296 445,296 	"/>
	<path class="st4" d="M51,72.4c0-12.7,10.3-23,23-23s23,10.3,23,23s-10.3,23-23,23C61.3,95.4,51,85.1,51,72.4"/>
	<g transform="translate(296)">
		<line class="st11" x1="1.4" y1="443.8" x2="1.4" y2="594.6"/>
		<line class="st12" x1="-0.1" y1="442.2" x2="-0.1" y2="593.1"/>
	</g>
	<g transform="translate(298 50)">
		<line class="st11" x1="-1" y1="394.6" x2="-50.9" y2="495.3"/>
		<line class="st12" x1="-1" y1="394.6" x2="-50.9" y2="495.3"/>
	</g>
	<g transform="translate(296 100)">
		<line class="st11" x1="2.2" y1="344.9" x2="-97.6" y2="394.8"/>
		<line class="st12" x1="2.2" y1="344.9" x2="-97.6" y2="394.8"/>
	</g>
	<g transform="translate(297 149)">
		<line class="st11" x1="0.2" y1="296" x2="-105.4" y2="296"/>
		<line class="st12" x1="0.2" y1="296" x2="-105.4" y2="296"/>
	</g>
	<g transform="translate(195 149)">
		<line class="st11" x1="100.7" y1="295.8" x2="204.6" y2="295.8"/>
		<line class="st12" x1="100.7" y1="295.8" x2="204.6" y2="295.8"/>
	</g>
	<g transform="translate(196 100)">
		<line class="st11" x1="102.2" y1="344.6" x2="202.9" y2="394.5"/>
		<line class="st12" x1="102.2" y1="344.6" x2="202.9" y2="394.5"/>
	</g>
	<g transform="translate(246 51)">
		<line class="st11" x1="52.3" y1="393.1" x2="102.2" y2="492.8"/>
		<line class="st12" x1="52.3" y1="393.1" x2="102.2" y2="492.8"/>
	</g>
	<g transform="translate(296 150)">
		<line class="st11" x1="1.4" y1="295.2" x2="1.4" y2="144.4"/>
		<line class="st12" x1="-0.1" y1="293.6" x2="-0.1" y2="142.9"/>
	</g>
	<g transform="translate(298 151)">
		<line class="st11" x1="-1" y1="292.6" x2="-50.9" y2="192.9"/>
		<line class="st12" x1="-1" y1="292.6" x2="-50.9" y2="192.9"/>
	</g>
	<g transform="translate(296 151)">
		<line class="st11" x1="2.2" y1="292.7" x2="-97.6" y2="242.8"/>
		<line class="st12" x1="2.2" y1="292.7" x2="-97.6" y2="242.8"/>
	</g>
	<g transform="translate(196 151)">
		<line class="st11" x1="102.2" y1="293" x2="202.9" y2="243.1"/>
		<line class="st12" x1="102.2" y1="293" x2="202.9" y2="243.1"/>
	</g>
	<g transform="translate(245 151)">
		<line class="st11" x1="54.3" y1="293" x2="104.2" y2="192.4"/>
		<line class="st12" x1="54.3" y1="293" x2="104.2" y2="192.4"/>
	</g>
</g>
</svg>
