<?xml version="1.0" encoding="utf-8"?>
<!-- Generator: Adobe Illustrator 24.3.0, SVG Export Plug-In . SVG Version: 6.00 Build 0)  -->
<svg version="1.1" id="Layer_1" xmlns="http://www.w3.org/2000/svg" xmlns:xlink="http://www.w3.org/1999/xlink" x="0px" y="0px"
	 viewBox="0 0 633 633" style="enable-background:new 0 0 633 633;" xml:space="preserve">
<style type="text/css">
	.st0{fill-rule:evenodd;clip-rule:evenodd;fill:#523178;}
	.st1{fill:none;stroke:#00A9E0;stroke-width:12;}
	.st2{fill-rule:evenodd;clip-rule:evenodd;fill:#004C97;}
	.st3{fill-rule:evenodd;clip-rule:evenodd;fill:#FFDD00;}
	.st4{fill-rule:evenodd;clip-rule:evenodd;fill:#00A7E1;}
	.st5{fill-rule:evenodd;clip-rule:evenodd;fill:#533278;}
	.st6{fill-rule:evenodd;clip-rule:evenodd;fill:#FFFFFF;}
	.st7{fill-rule:evenodd;clip-rule:evenodd;fill:#84BD00;}
	.st8{fill-rule:evenodd;clip-rule:evenodd;fill:#509E2F;}
	.st9{fill-rule:evenodd;clip-rule:evenodd;fill:#FEDD00;}
</style>
<g>
	<path class="st0" d="M316.8,632.5h316V316.9h-316V632.5z"/>
	<g>
		<path class="st1" d="M474.8,348.5v253"/>
		<path class="st1" d="M425.8,357.5l97,234"/>
		<path class="st1" d="M385.8,385.5l179,179"/>
		<path class="st1" d="M357.8,425.5l234,97"/>
		<path class="st1" d="M348.8,474.5h253"/>
		<path class="st1" d="M357.8,523.5l234-97"/>
		<path class="st1" d="M385.8,563.5l179-179"/>
		<path class="st1" d="M425.8,591.5l97-234"/>
	</g>
	<path class="st2" d="M0.2,316.9h316.5v315.6H0.2V316.9z"/>
	<path class="st3" d="M0.2,474.5h157.5V316.9H0.2V474.5z"/>
	<path class="st4" d="M157.8,474.5h159V316.9h-159V474.5z"/>
	<path class="st5" d="M0.2,632.5h157.5v-158H0.2V632.5z"/>
	<path class="st6" d="M157.8,632.5h159v-158h-159V632.5z"/>
	<path class="st7" d="M0.2,0.5h316.5v316.4H0.2V0.5z"/>
	<g>
		<path class="st8" d="M0.2,265v23h316.5v-23H0.2z"/>
		<path class="st8" d="M0.2,113v23h316.5v-23H0.2z"/>
		<path class="st8" d="M0.2,214v23h316.5v-23H0.2z"/>
		<path class="st8" d="M0.2,164v23h316.5v-23H0.2z"/>
		<path class="st8" d="M0.2,62v23h316.5V62H0.2z"/>
	</g>
	<path class="st9" d="M316.8,0.5h316v316.4h-316V0.5z"/>
	<path class="st5" d="M316.8,317.9l23.8-1c77.1-11.6,136.2-75.6,136.2-156c0-88.5-71.6-160.3-160-160.4V317.9z"/>
	<path class="st6" d="M316.8,262.5l15.3-1c49.6-7.4,87.7-50,87.7-101.4c0-56.6-46.1-102.5-103-102.6V262.5z"/>
</g>
</svg>
