<svg xmlns="http://www.w3.org/2000/svg" xmlns:xlink="http://www.w3.org/1999/xlink" viewBox="0 0 635 634">
  <defs>
    <rect id="a" width="159" height="159" x="0" y="0"/>
  </defs>
  <g fill="none" fill-rule="evenodd">
    <rect width="634" height="634" fill="#F5F5F5"/>
    <rect width="316" height="316" x="1.5" y="317.5" fill="#523178" stroke="#979797"/>
    <polygon fill="#84BD00" points="160 634 1 475 1 634"/>
    <polygon fill="#F2A900" points="1 634 159.5 475 318 634"/>
    <polygon fill="#FEDD00" points="159 634 318 475 318 634"/>
    <rect width="159" height="159" x="318" y="475" fill="#004C97"/>
    <rect width="159" height="159" x="476" y="158" fill="#004C97"/>
    <rect width="159" height="159" x="161" y="158" fill="#523178"/>
    <path fill="#00A9E0" d="M317 317v-11.587C311.337 267.825 278.77 239 239.439 239c-43.292 0-78.392 34.912-78.439 78h156z"/>
    <rect width="159" height="159" x="476" y="317" fill="#00A9E0"/>
    <circle cx="555.5" cy="396.5" r="28.5" fill="#FFF"/>
    <rect width="159" height="159" x="161" fill="#D62598"/>
    <rect width="159" height="159" x="317" y="158" fill="#F2A900"/>
    <g transform="translate(2 158)">
      <mask id="b" fill="#fff">
        <use xlink:href="#a"/>
      </mask>
      <use fill="#FEDD00" xlink:href="#a"/>
      <g stroke="#FFF" stroke-width="12" mask="url(#b)">
        <g transform="translate(46 45)">
          <line x1="108" x2="108" y2="215"/>
          <line x1="66" x2="149" y1="8" y2="207"/>
          <line x1="32" x2="184" y1="32" y2="184"/>
          <line x1="8" x2="207" y1="66" y2="149"/>
          <line x2="215" y1="108" y2="108"/>
          <line x1="8" x2="207" y1="149" y2="66"/>
          <line x1="32" x2="184" y1="183" y2="31"/>
          <line x1="66" x2="149" y1="207" y2="8"/>
        </g>
      </g>
    </g>
    <rect width="159" height="159" x="317" y="317" fill="#FEDD00"/>
    <rect width="113" height="113" x="340" y="260" fill="#523178" transform="rotate(45 396.5 316.5)"/>
    <rect width="159" height="159" x="317" fill="#00A9E0"/>
    <rect width="28" height="159" x="317" fill="#523178"/>
    <rect width="28" height="159" x="361" fill="#523178"/>
    <rect width="28" height="159" x="405" fill="#523178"/>
    <rect width="28" height="159" x="449" fill="#523178"/>
  </g>
</svg>
