<?xml version="1.0" encoding="utf-8"?>
<!-- Generator: Adobe Illustrator 24.3.0, SVG Export Plug-In . SVG Version: 6.00 Build 0)  -->
<svg version="1.1" id="Layer_1" xmlns="http://www.w3.org/2000/svg" xmlns:xlink="http://www.w3.org/1999/xlink" x="0px" y="0px"
	 viewBox="0 0 635 634" style="enable-background:new 0 0 635 634;" xml:space="preserve">
<style type="text/css">
	.st0{fill-rule:evenodd;clip-rule:evenodd;fill:#F5F5F5;}
	.st1{fill-rule:evenodd;clip-rule:evenodd;fill:#523178;}
	.st2{fill-rule:evenodd;clip-rule:evenodd;fill:#84BD00;}
	.st3{fill-rule:evenodd;clip-rule:evenodd;fill:#F2A900;}
	.st4{fill-rule:evenodd;clip-rule:evenodd;fill:#FEDD00;}
	.st5{fill-rule:evenodd;clip-rule:evenodd;fill:#004C97;}
	.st6{fill-rule:evenodd;clip-rule:evenodd;fill:#00A9E0;}
	.st7{fill-rule:evenodd;clip-rule:evenodd;fill:#FFFFFF;}
	.st8{fill-rule:evenodd;clip-rule:evenodd;fill:#D62598;}
	.st9{filter:url(#Adobe_OpacityMaskFilter);}
	.st10{mask:url(#b_1_);}
	.st11{fill:none;stroke:#FFFFFF;stroke-width:12;}
</style>
<g>
	<rect class="st0" width="635" height="634"/>
	<rect y="317" class="st1" width="317.5" height="317"/>
	<polygon class="st2" points="160,634 0,475 0,634 	"/>
	<polygon class="st3" points="0,634 159.5,475 317.5,634 	"/>
	<polygon class="st4" points="159,634 317.5,475.6 317.5,634 	"/>
	<rect x="317.5" y="475.6" class="st5" width="159.5" height="158.4"/>
	<rect x="476" y="158.6" class="st5" width="159" height="158.4"/>
	<rect x="161" y="158.6" class="st1" width="156.5" height="158.4"/>
	<path class="st6" d="M317.5,317v-11.6c-5.7-37.6-38.8-66.4-78.1-66.4c-43.3,0-78.4,34.9-78.4,78H317.5z"/>
	<rect x="476" y="317" class="st6" width="159" height="158.6"/>
	<circle class="st7" cx="555.5" cy="396.5" r="28.5"/>
	<rect x="161" class="st8" width="156.5" height="158.6"/>
	<rect x="317.5" y="158.6" class="st3" width="158.5" height="158.4"/>
	<g transform="translate(2 158)">
		<g>
			<rect id="a_1_" x="-2" y="0.6" class="st4" width="161" height="158.4"/>
		</g>
		<defs>
			<filter id="Adobe_OpacityMaskFilter" filterUnits="userSpaceOnUse" x="46" y="45" width="215" height="215">
				<feColorMatrix  type="matrix" values="1 0 0 0 0  0 1 0 0 0  0 0 1 0 0  0 0 0 1 0"/>
			</filter>
		</defs>
		<mask maskUnits="userSpaceOnUse" x="46" y="45" width="215" height="215" id="b_1_">
			<g class="st9">
				<rect id="a_2_" class="st7" width="159" height="159"/>
			</g>
		</mask>
		<g class="st10">
			<g transform="translate(46 45)">
				<line class="st11" x1="108" y1="0" x2="108" y2="215"/>
				<line class="st11" x1="66" y1="8" x2="149" y2="207"/>
				<line class="st11" x1="32" y1="32" x2="184" y2="184"/>
				<line class="st11" x1="8" y1="66" x2="207" y2="149"/>
				<line class="st11" x1="0" y1="108" x2="215" y2="108"/>
				<line class="st11" x1="8" y1="149" x2="207" y2="66"/>
				<line class="st11" x1="32" y1="183" x2="184" y2="31"/>
				<line class="st11" x1="66" y1="207" x2="149" y2="8"/>
			</g>
		</g>
	</g>
	<rect x="317.5" y="317" class="st4" width="158.5" height="158.6"/>
	<polygon class="st1" points="396.5,236.6 476.4,317 396.5,396.4 317.5,317 	"/>
	<rect x="317.5" class="st6" width="158.5" height="158.6"/>
	<rect x="317.5" class="st1" width="27.5" height="158.6"/>
	<rect x="361" class="st1" width="28" height="158.6"/>
	<rect x="405" class="st1" width="28" height="158.6"/>
	<rect x="449" class="st1" width="28" height="158.6"/>
</g>
</svg>
