<svg xmlns="http://www.w3.org/2000/svg" viewBox="0 0 434 434">
  <g fill="none" fill-rule="evenodd">
    <path fill="#509E2F" d="M0 0h434v434H0z"/>
    <path fill="#FFF" d="M217.4 141c45.011 0 81.5 36.713 81.5 82s-36.489 82-81.5 82-81.5-36.713-81.5-82 36.489-82 81.5-82zm.5 35c-25.957 0-47 21.043-47 47s21.043 47 47 47 47-21.043 47-47-21.043-47-47-47z"/>
    <path fill="#FEDD00" d="M293.92 132l17.82 18c4.934 4.985 4.934 13.015 0 18-4.872 4.92-12.81 4.96-17.73.09l-.09-.09-17.82-18c-4.934-4.985-4.934-13.015 0-18 4.872-4.92 12.81-4.96 17.73-.09l.09.09z"/>
    <ellipse cx="301.9" cy="289" fill="#84BD00" rx="15.96" ry="16"/>
  </g>
</svg>
