<svg xmlns="http://www.w3.org/2000/svg" viewBox="0 0 435 435">
  <g fill="none" fill-rule="evenodd">
    <path fill="#D62598" d="M0 0h434v434H0z"/>
    <g stroke="#F8F8F8" stroke-width="8.8">
      <path d="M434.2 410c-13.365 0-24.2 10.835-24.2 24.2M434.2 385.8c-26.73 0-48.4 21.67-48.4 48.4M434.2 361.6c-40.096 0-72.6 32.504-72.6 72.6M434.2 337.4c-53.461 0-96.8 43.339-96.8 96.8M434.2 313.2c-66.826 0-121 54.174-121 121M434.2 289C354.008 289 289 354.008 289 434.2M434.2 264.8c-93.557 0-169.4 75.843-169.4 169.4M434.2 240.6c-106.922 0-193.6 86.678-193.6 193.6M434.2 216.4c-120.288 0-217.8 97.512-217.8 217.8M434.2 192.2c-133.653 0-242 108.347-242 242M434.2 168C287.182 168 168 287.182 168 434.2M434.2 143.8c-160.384 0-290.4 130.016-290.4 290.4M434.2 119.6c-173.749 0-314.6 140.851-314.6 314.6M434.2 95.4c-187.114 0-338.8 151.686-338.8 338.8M434.2 71.2c-200.48 0-363 162.52-363 363M434.2 47C220.355 47 47 220.355 47 434.2"/>
    </g>
  </g>
</svg>
