<svg xmlns="http://www.w3.org/2000/svg" viewBox="0 0 434 434">
  <g fill="none" fill-rule="evenodd">
    <path fill="#523178" d="M0 0h434v434H0z"/>
    <path fill="#004C97" d="M120.64 218c0 53.572 43.428 97 97 97 53.571 0 97-43.428 97-97s-43.429-97-97-97c-53.572 0-97 43.428-97 97"/>
    <path fill="#00A9E0" d="M143.64 218c0 40.869 33.13 74 74 74 40.869 0 74-33.131 74-74s-33.131-74-74-74c-40.87 0-74 33.131-74 74"/>
    <path stroke="#FFF" stroke-width="4" d="M217.64 99v237M171.64 108l90 219M133.64 134l167 168M108.64 172l218 91M99.64 218h236M108.64 263l218-91M133.64 301l167-168M171.64 327l90-219"/>
  </g>
</svg>
