<svg xmlns="http://www.w3.org/2000/svg" viewBox="0 0 434 434">
  <g fill="none" fill-rule="evenodd">
    <path fill="#00A9E0" d="M0 0h434v434H0z"/>
    <g stroke="#004C97" stroke-width="6">
      <path d="M0 239h137.273c12 0 21.727-9.626 21.727-21.5s-9.728-21.5-21.727-21.5H0"/>
      <path d="M.5 260.5h136.667c23.932 0 43.333-19.475 43.333-43.5s-19.4-43.5-43.333-43.5H.5"/>
      <path d="M0 282h136.923C172.864 282 202 252.899 202 217s-29.136-65-65.077-65H0"/>
      <path d="M0 304h137.143c47.97 0 86.857-38.951 86.857-87s-38.887-87-86.857-87H0"/>
      <path d="M0 326h136.667C196.497 326 245 277.423 245 217.5S196.497 109 136.667 109H0"/>
      <path d="M.5 347.5h136.875c71.866 0 130.125-58.203 130.125-130s-58.259-130-130.125-130H.5"/>
      <path d="M.5 369.5h137.059c83.915 0 151.941-68.053 151.941-152s-68.026-152-151.941-152H.5"/>
      <path d="M0 391h137.222C233.197 391 311 313.321 311 217.5S233.197 44 137.222 44H0"/>
      <path d="M.5 412.5h136.842C245.125 412.5 332.5 324.972 332.5 217S245.125 21.5 137.342 21.5H.5"/>
    </g>
  </g>
</svg>
