<svg xmlns="http://www.w3.org/2000/svg" xmlns:xlink="http://www.w3.org/1999/xlink" viewBox="0 0 60 60">
  <defs>
    <path id="a" d="M11 6.875c-.76 0-1.375.616-1.375 1.375v16.5c0 .76.616 1.375 1.375 1.375h11c.76 0 1.375-.616 1.375-1.375V8.25c0-.76-.616-1.375-1.375-1.375H11zm0-2.75h11a4.125 4.125 0 014.125 4.125v16.5A4.125 4.125 0 0122 28.875H11a4.125 4.125 0 01-4.125-4.125V8.25A4.125 4.125 0 0111 4.125zm8.25 15.125a1.375 1.375 0 010 2.75h-5.5a1.375 1.375 0 010-2.75zm0-4.125a1.375 1.375 0 010 2.75h-5.5a1.375 1.375 0 010-2.75zm0-4.125a1.375 1.375 0 010 2.75h-5.5a1.375 1.375 0 010-2.75z"/>
  </defs>
  <g fill="none" fill-rule="evenodd">
    <circle cx="30" cy="30" r="30" fill="#00A9E0"/>
    <g transform="translate(14 14)">
      <mask id="b" fill="#fff">
        <use xlink:href="#a"/>
      </mask>
      <use fill="#0C0C0C" xlink:href="#a"/>
      <g fill="#FFF" mask="url(#b)">
        <path d="M0 0h33v33H0z"/>
      </g>
    </g>
  </g>
</svg>
