<svg xmlns="http://www.w3.org/2000/svg" xmlns:xlink="http://www.w3.org/1999/xlink" viewBox="0 0 60 60">
  <defs>
    <path id="date-a" d="M12.45 2.75a1.3 1.3 0 011.3 1.3V5.5h5.5V4.05a1.3 1.3 0 011.3-1.3h.15a1.3 1.3 0 011.3 1.3V5.5h2.975a3.9 3.9 0 013.9 3.9v16.95a3.9 3.9 0 01-3.9 3.9H8.025a3.9 3.9 0 01-3.9-3.9V9.4a3.9 3.9 0 013.9-3.9H11V4.05a1.3 1.3 0 011.3-1.3h.15zm13.675 12.375H6.875V26.2a1.3 1.3 0 001.167 1.293l.133.007h16.65a1.3 1.3 0 001.293-1.167l.007-.133V15.125zm-1.3-6.875H22V9.7a1.3 1.3 0 01-1.3 1.3h-.15a1.3 1.3 0 01-1.3-1.3V8.25h-5.5V9.7a1.3 1.3 0 01-1.3 1.3h-.15A1.3 1.3 0 0111 9.7V8.25H8.175a1.3 1.3 0 00-1.293 1.167l-.007.133v2.825h19.25V9.55a1.3 1.3 0 00-1.3-1.3z"/>
  </defs>
  <g fill="none" fill-rule="evenodd">
    <g transform="translate(14 14)">
      <mask id="date-b" fill="#fff">
        <use xlink:href="#date-a"/>
      </mask>
      <use fill="#000" xlink:href="#date-a"/>
      <g fill="#FFF" mask="url(#date-b)">
        <path d="M0 0h33v33H0z"/>
      </g>
    </g>
  </g>
</svg>
