<svg xmlns="http://www.w3.org/2000/svg" xmlns:xlink="http://www.w3.org/1999/xlink" viewBox="0 0 60 60">
  <defs>
    <path id="goal-a" d="M22.47 14.257V7.04c0-.008-3.852-.015-11.556-.021-.008 0-.016 2.412-.023 7.237-.065 4.36 2.714 7.236 5.79 7.236 2.934 0 5.791-2.883 5.79-7.236zm-5.79 10.131c-4.867 0-8.682-5.79-8.682-10.757v-6.59a2.916 2.916 0 012.916-2.916h11.535a2.916 2.916 0 012.916 2.916v6.94c0 4.618-3.902 10.407-8.684 10.407zm0-2.895c.8 0 1.448.648 1.448 1.448v4.342h2.895a1.447 1.447 0 010 2.895h-8.684a1.447 1.447 0 110-2.895h2.895V22.94c0-.8.648-1.448 1.447-1.448zM25.336 7.02c2.693 0 4.835 2.288 4.835 5.066 0 2.777-2.142 5.065-4.835 5.065-.72 0-1.419-.165-2.057-.48a1.447 1.447 0 011.28-2.596c.243.12.505.182.777.182 1.05 0 1.94-.952 1.94-2.171 0-1.22-.89-2.172-1.94-2.172a1.447 1.447 0 010-2.894zm-17.338 0a1.447 1.447 0 010 2.894c-1.05 0-1.94.952-1.94 2.172 0 1.22.89 2.17 1.94 2.17.273 0 .535-.062.778-.181a1.447 1.447 0 111.28 2.596 4.642 4.642 0 01-2.058.48c-2.692 0-4.835-2.288-4.835-5.065 0-2.778 2.143-5.066 4.835-5.066z"/>
  </defs>
  <g fill="none" fill-rule="evenodd">
    <g transform="translate(14 14)">
      <mask id="goal-b" fill="#fff">
        <use xlink:href="#goal-a"/>
      </mask>
      <use fill="#0C0C0C" xlink:href="#goal-a"/>
      <g fill="#FFF" mask="url(#goal-b)">
        <path d="M0 0h33v33H0z"/>
      </g>
    </g>
  </g>
</svg>
