<svg xmlns="http://www.w3.org/2000/svg" xmlns:xlink="http://www.w3.org/1999/xlink" viewBox="0 0 60 60">
  <defs>
    <path id="location-a" d="M18.361 29.535a2.77 2.77 0 01-3.912-.19C8.506 22.799 5.5 17.666 5.5 13.75c0-6.206 4.862-11 11-11s11 4.794 11 11c0 3.914-3.006 9.048-8.949 15.596a2.77 2.77 0 01-.19.19zM24.75 13.75c0-4.678-3.622-8.25-8.25-8.25s-8.25 3.572-8.25 8.25c0 3.025 2.722 7.673 8.235 13.748 5.543-6.075 8.265-10.723 8.265-13.748zm-8.25 4.125a4.125 4.125 0 110-8.25 4.125 4.125 0 010 8.25zm0-2.75a1.375 1.375 0 100-2.75 1.375 1.375 0 000 2.75z" />
  </defs>
  <g fill="none" fill-rule="evenodd">
    <g transform="translate(14 14)">
      <mask id="location-b" fill="#fff">
        <use xlink:href="#location-a" />
      </mask>
      <use fill="#000" xlink:href="#location-a" />
      <g fill="#FFF" mask="url(#location-b)">
        <path d="M0 0h33v33H0z" />
      </g>
    </g>
  </g>
</svg>
